<svg width="32" height="32" viewBox="0 0 32 32" fill="none" xmlns="http://www.w3.org/2000/svg">
  <!-- Gradient definition -->
  <defs>
    <linearGradient id="gradient" x1="0" y1="0" x2="32" y2="32" gradientUnits="userSpaceOnUse">
      <stop offset="0%" stop-color="#9333EA" /> <!-- purple-600 -->
      <stop offset="100%" stop-color="#4F46E5" /> <!-- indigo-600 -->
    </linearGradient>
  </defs>

  <!-- Background rectangle with rounded corners -->
  <rect width="32" height="32" rx="8" fill="url(#gradient)" />

  <!-- Rocket icon (centered in the gradient background) -->
  <path 
    d="M16 8C16 8 14 10.5 14 15.5C14 17.5 14.5 20 14.5 20L17.5 20C17.5 20 18 17.5 18 15.5C18 10.5 16 8 16 8Z" 
    fill="white"
  />
  <path 
    d="M16 23.5C14.5 23.5 13.5 22 13.5 22L14.5 20L17.5 20L18.5 22C18.5 22 17.5 23.5 16 23.5Z" 
    fill="white"
  />
  <path 
    d="M13 15.5C13 15.5 11 15 9.5 16.5C8 18 8 20 8 20C8 20 10 20 11.5 18.5C13 17 13 15.5 13 15.5Z" 
    fill="white"
  />
  <path 
    d="M19 15.5C19 15.5 21 15 22.5 16.5C24 18 24 20 24 20C24 20 22 20 20.5 18.5C19 17 19 15.5 19 15.5Z" 
    fill="white"
  />
</svg> 